<?xml version="1.0" encoding="UTF-8" standalone="no"?>
<!-- Created with Inkscape (http://www.inkscape.org/) -->

<svg
   xmlns:dc="http://purl.org/dc/elements/1.1/"
   xmlns:cc="http://creativecommons.org/ns#"
   xmlns:rdf="http://www.w3.org/1999/02/22-rdf-syntax-ns#"
   xmlns:svg="http://www.w3.org/2000/svg"
   xmlns="http://www.w3.org/2000/svg"
   xmlns:sodipodi="http://sodipodi.sourceforge.net/DTD/sodipodi-0.dtd"
   xmlns:inkscape="http://www.inkscape.org/namespaces/inkscape"
   width="525.44"
   height="525.44"
   id="svg2"
   version="1.1"
   inkscape:version="0.48.3.1 r9886"
   sodipodi:docname="kiboko-logo.svg"
   inkscape:export-filename="D:\Dropbox\fritz_karl\Zeitmessung\Dokumentation\flyer\kiboko-flyer.png"
   inkscape:export-xdpi="300.01077"
   inkscape:export-ydpi="300.01077">
  <defs
     id="defs4">
    <inkscape:perspective
       sodipodi:type="inkscape:persp3d"
       inkscape:vp_x="0 : 526.18109 : 1"
       inkscape:vp_y="0 : 1000 : 0"
       inkscape:vp_z="744.09448 : 526.18109 : 1"
       inkscape:persp3d-origin="372.04724 : 350.78739 : 1"
       id="perspective14" />
  </defs>
  <sodipodi:namedview
     id="base"
     pagecolor="#ffffff"
     bordercolor="#666666"
     borderopacity="1.0"
     inkscape:pageopacity="0.0"
     inkscape:pageshadow="2"
     inkscape:zoom="0.52785238"
     inkscape:cx="523.28947"
     inkscape:cy="190.14918"
     inkscape:document-units="px"
     inkscape:current-layer="g4011"
     showgrid="false"
     inkscape:window-width="1600"
     inkscape:window-height="845"
     inkscape:window-x="-2"
     inkscape:window-y="-3"
     inkscape:window-maximized="1"
     fit-margin-top="0"
     fit-margin-left="0"
     fit-margin-right="0"
     fit-margin-bottom="0"
     units="px" />
  <metadata
     id="metadata7">
    <rdf:RDF>
      <cc:Work
         rdf:about="">
        <dc:format>image/svg+xml</dc:format>
        <dc:type
           rdf:resource="http://purl.org/dc/dcmitype/StillImage" />
        <dc:title />
      </cc:Work>
    </rdf:RDF>
  </metadata>
  <g
     inkscape:label="Layer 1"
     inkscape:groupmode="layer"
     id="layer1"
     transform="translate(-120.3587,-108.9215)">
    <g
       id="g4011"
       transform="matrix(10.704983,0,0,10.704983,-5046.7442,-150.9665)">
      <g
         id="g2990"
         transform="translate(-1.2370527e-4,-8.3595854)">
        <rect
           rx="6.4016237"
           style="fill:#c87137;fill-opacity:1;stroke:#000000;stroke-width:0.42378703;stroke-miterlimit:4;stroke-dasharray:none"
           id="rect3797"
           width="48.660145"
           height="31.940729"
           x="482.89392"
           y="41.208355"
           ry="6.4016237" />
        <path
           style="fill:#ffff00;stroke:#000000;stroke-width:0.21189351;stroke-linecap:butt;stroke-linejoin:miter;stroke-miterlimit:4;stroke-opacity:1;stroke-dasharray:none"
           d="m 499.64752,54.220441 c 1.16956,-0.584015 1.35722,-0.448444 2.95678,0.281596 1.56063,0.712268 3.99827,0.101461 5.06877,-0.09387 1.01489,1.355045 0.2445,5.261877 0,7.46235 1.1472,0.212783 2.23679,0.297327 3.66077,0.09387 -0.12646,-2.270275 -0.0743,-4.258817 0.11733,-6.195157 3.39959,3.071524 9.75573,1.484724 10.5834,-1.032527 -0.62624,2.34376 0.70505,5.097238 -0.0939,7.227684 1.65614,0.129863 2.53788,0.225457 3.75464,-0.09387 -1.02199,-3.674489 -0.87763,-6.05634 0.15923,-8.608045 0.62028,0.470756 0.7477,0.6371 0.77828,1.160573 0.0306,0.523475 -1.03534,1.328634 0.42355,2.209395 1.15611,-1.185755 0.11132,-1.513191 0.17744,-2.231939 0.0638,-0.693395 -0.72777,-1.274724 -1.16348,-1.710432 0.12783,-2.935107 -2.58127,-7.041609 -6.84692,-5.687227 -1.4954,0.474803 -5.4577,0.321676 -6.10615,0.03684 -1.15114,-0.505648 -3.5063,-2.074805 -4.31783,-0.938658 -0.43693,-0.841778 -1.55389,0.639254 -2.06505,0.281597 -0.0624,-1.429864 -0.71912,-1.529983 -1.47992,-1.523801 -0.28594,1.52172 1.1436,0.897474 0.77592,2.13393 -3.0427,0.0556 -2.81266,3.30337 -6.53929,1.348763 -0.95269,-0.499682 -3.15957,-3.312741 -4.87362,-0.25421 -0.44732,0.79819 -0.50683,1.900562 -0.21825,2.615474 -0.35288,2.093672 2.66804,4.377735 5.24827,3.517659 z"
           id="path3016"
           inkscape:connector-curvature="0" />
        <path
           style="fill:#ffff00;stroke:#000000;stroke-width:0.20341781;stroke-linecap:butt;stroke-linejoin:miter;stroke-miterlimit:4;stroke-opacity:1;stroke-dasharray:none"
           d="m 494.43011,50.705103 c 0.29679,0.71723 0.92727,1.04932 2.44836,1.121753"
           id="path3010"
           inkscape:connector-curvature="0" />
        <path
           style="fill:#ffffff;stroke:#000000;stroke-width:0.15256335;stroke-linecap:butt;stroke-linejoin:miter;stroke-miterlimit:4;stroke-opacity:1;stroke-dasharray:none"
           d="m 504.09899,49.415608 c -0.22653,-0.285775 -1.47451,0.01925 -1.1968,0.330684 0.27769,0.311437 1.42333,-0.04491 1.1968,-0.330684 z"
           id="path3018"
           inkscape:connector-curvature="0" />
        <text
           xml:space="preserve"
           style="font-size:10.47382069px;font-style:normal;font-variant:normal;font-weight:bold;font-stretch:normal;text-align:start;line-height:125%;letter-spacing:0px;word-spacing:0px;text-anchor:start;fill:#000000;fill-opacity:1;stroke:none;font-family:Times New Roman;-inkscape-font-specification:Sans Bold"
           x="486.79993"
           y="68.822899"
           id="text3793"
           sodipodi:linespacing="125%"><tspan
             sodipodi:role="line"
             id="tspan3795"
             x="486.79993"
             y="68.822899"
             style="font-style:normal;font-variant:normal;font-weight:bold;font-stretch:normal;font-family:DejaVu Sans;-inkscape-font-specification:DejaVu Sans Bold">Kiboko</tspan></text>
      </g>
      <path
         style="fill:none;stroke:#000000;stroke-width:0.09341444px;stroke-linecap:butt;stroke-linejoin:miter;stroke-opacity:1"
         d="m 482.75098,24.35576 0.27868,0.01453"
         id="path2993"
         inkscape:connector-curvature="0"
         sodipodi:nodetypes="cc" />
      <path
         style="fill:none;stroke:#000000;stroke-width:0.09341444px;stroke-linecap:butt;stroke-linejoin:miter;stroke-opacity:1"
         d="m 531.39768,73.243104 0.27868,0.01453"
         id="path2993-0"
         inkscape:connector-curvature="0"
         sodipodi:nodetypes="cc" />
    </g>
  </g>
</svg>
